<?xml version="1.0" encoding="UTF-8"?>
<svg id="Layer_1" data-name="Layer 1" xmlns="http://www.w3.org/2000/svg" viewBox="0 0 1440 1440">
  <defs>
    <style>
      .cls-1 {
        fill: #000;
      }

      .cls-1, .cls-2 {
        stroke-width: 0px;
      }

      .cls-2 {
        fill: #fff;
      }
    </style>
  </defs>
  <rect class="cls-1" x="5.11" y="18.69" width="1395.06" height="1381.3" rx="170.6" ry="170.6"/>
  <g>
    <g>
      <path class="cls-2" d="M870.29,307.39l-202.5,480.6c-14.4,34.1-47.7,56.2-84.7,56.2h-175.6l202.5-480.6c14.4-34.1,47.7-56.2,84.7-56.2h175.6Z"/>
      <path class="cls-2" d="M747.39,843.49c56.1,0,109.8,2.8,163-.9,47.7-3.3,84.5-46.2,87.2-92.9,2.9-48.6-26.9-91.8-72.6-105.3-46.1-13.7-97.4,5-117.7,48.6-22.6,48.3-39.8,99.2-59.9,150.5h0Z"/>
    </g>
    <g>
      <path class="cls-2" d="M411.56,1017.64c.39,2.36.59,4.72.59,7.09v52.17h-28.55v-50.99c0-2.89-.39-5.64-1.18-8.27-1.84-5.51-5.12-10.01-9.84-13.49-4.73-3.48-10.04-5.22-15.95-5.22-7.48,0-13.88,2.63-19.2,7.88-5.32,5.25-7.97,11.62-7.97,19.1,0,4.99,1.21,9.55,3.64,13.68,2.43,4.13,5.71,7.42,9.84,9.84,4.13,2.43,8.69,3.64,13.68,3.64,8,0,14.63-2.95,19.88-8.86v33.67c-6.43,2.49-13.06,3.74-19.88,3.74-15.36,0-28.48-5.45-39.38-16.34-10.9-10.89-16.34-24.02-16.34-39.38s5.44-28.48,16.34-39.38c10.89-10.89,24.02-16.34,39.38-16.34,13.91,0,26.05,4.53,36.42,13.58,10.37,9.06,16.54,20.35,18.51,33.86Z"/>
      <path class="cls-2" d="M470.42,970.19h14.37v25.99h-10.24c-5.12,0-9.52,1.81-13.19,5.41-3.68,3.61-5.51,8.04-5.51,13.29v62.02h-28.55v-63.59c0-11.81,4.2-21.95,12.6-30.42,8.4-8.47,18.57-12.7,30.52-12.7Z"/>
      <path class="cls-2" d="M593.67,970.19l-36.42,56.31,32.68,50.4h-32.48l-18.31-28.15-18.31,28.15h-32.29l34.45-53.35-34.45-53.35h32.48l20.08,31.3,20.08-31.3h32.48Z"/>
      <path class="cls-2" d="M685.8,1065.28c-10.9,10.9-24.02,16.34-39.38,16.34s-28.48-5.45-39.38-16.34c-10.9-10.89-16.34-24.02-16.34-39.38s5.44-28.45,16.34-39.28c10.89-10.83,24.02-16.24,39.38-16.24s28.48,5.41,39.38,16.24c10.89,10.83,16.34,23.92,16.34,39.28s-5.45,28.48-16.34,39.38ZM646.43,1106.63c4.85,0,9.32-1.31,13.39-3.94,4.07-2.63,7.09-6.04,9.06-10.24h27.56c-2.49,11.55-8.4,21.13-17.72,28.74-9.32,7.61-20.08,11.42-32.29,11.42s-23-3.81-32.39-11.42c-9.39-7.61-15.26-17.2-17.62-28.74h27.56c1.31,2.76,3.08,5.22,5.32,7.38,2.23,2.17,4.82,3.84,7.78,5.02,2.95,1.18,6.07,1.77,9.35,1.77ZM665.53,1006.81c-5.25-5.25-11.62-7.88-19.1-7.88s-13.88,2.63-19.2,7.88c-5.32,5.25-7.97,11.62-7.97,19.1s2.66,13.88,7.97,19.2c5.32,5.32,11.71,7.97,19.2,7.97s13.85-2.66,19.1-7.97c5.25-5.32,7.88-11.71,7.88-19.2s-2.63-13.85-7.88-19.1ZM693.09,967.14c-2.23,2.17-4.89,3.25-7.97,3.25s-5.71-1.08-7.88-3.25c-2.17-2.17-3.25-4.82-3.25-7.97s1.08-5.81,3.25-7.97c2.17-2.17,4.79-3.25,7.88-3.25s5.74,1.08,7.97,3.25c2.23,2.17,3.35,4.82,3.35,7.97s-1.12,5.81-3.35,7.97Z"/>
      <path class="cls-2" d="M758.06,970.19h14.37v25.99h-10.24c-5.12,0-9.52,1.81-13.19,5.41-3.68,3.61-5.51,8.04-5.51,13.29v62.02h-28.55v-63.59c0-11.81,4.2-21.95,12.6-30.42,8.4-8.47,18.57-12.7,30.52-12.7Z"/>
      <path class="cls-2" d="M887.99,1017.64c.39,2.36.59,4.72.59,7.09v52.17h-28.55v-50.99c0-2.89-.39-5.64-1.18-8.27-1.84-5.51-5.12-10.01-9.84-13.49-4.72-3.48-10.04-5.22-15.95-5.22-7.48,0-13.88,2.63-19.2,7.88-5.31,5.25-7.97,11.62-7.97,19.1,0,4.99,1.21,9.55,3.64,13.68,2.43,4.13,5.71,7.42,9.84,9.84,4.13,2.43,8.69,3.64,13.68,3.64,8,0,14.63-2.95,19.88-8.86v33.67c-6.43,2.49-13.06,3.74-19.88,3.74-15.36,0-28.48-5.45-39.38-16.34-10.89-10.89-16.34-24.02-16.34-39.38s5.45-28.48,16.34-39.38c10.89-10.89,24.02-16.34,39.38-16.34,13.91,0,26.05,4.53,36.42,13.58,10.37,9.06,16.54,20.35,18.51,33.86Z"/>
      <path class="cls-2" d="M935.64,967.04h51.98v109.86h-28.55v-90.37h-23.43v120.49h-28.74v-120.49h-7.88v-19.49h7.88c.13-11.81,4.4-21.85,12.8-30.12,8.4-8.27,18.51-12.4,30.32-12.4h14.37v25.79h-10.24c-4.86,0-9.03,1.61-12.5,4.82-3.48,3.22-5.48,7.19-6,11.91Z"/>
      <path class="cls-2" d="M1104.36,970.19l-36.42,56.31,32.68,50.4h-32.48l-18.31-28.15-18.31,28.15h-32.29l34.45-53.35-34.45-53.35h32.48l20.08,31.3,20.08-31.3h32.48Z"/>
    </g>
  </g>
</svg>